<?xml version="1.0" encoding="UTF-8" standalone="no"?>
<!-- Created with Inkscape (http://www.inkscape.org/) -->

<svg
   xmlns:dc="http://purl.org/dc/elements/1.1/"
   xmlns:cc="http://creativecommons.org/ns#"
   xmlns:rdf="http://www.w3.org/1999/02/22-rdf-syntax-ns#"
   xmlns:svg="http://www.w3.org/2000/svg"
   xmlns="http://www.w3.org/2000/svg"
   xmlns:sodipodi="http://sodipodi.sourceforge.net/DTD/sodipodi-0.dtd"
   xmlns:inkscape="http://www.inkscape.org/namespaces/inkscape"
   width="210mm"
   height="297mm"
   viewBox="0 0 210 297"
   version="1.1"
   id="svg8"
   inkscape:version="0.92.3 (2405546, 2018-03-11)"
   sodipodi:docname="logo.svg">
  <defs
     id="defs2">
    <inkscape:perspective
       sodipodi:type="inkscape:persp3d"
       inkscape:vp_x="0 : 148.5 : 1"
       inkscape:vp_y="0 : 1000 : 0"
       inkscape:vp_z="176.06354 : 135.51678 : 1"
       inkscape:persp3d-origin="105 : 99 : 1"
       id="perspective3737" />
  </defs>
  <sodipodi:namedview
     id="base"
     pagecolor="#ffffff"
     bordercolor="#666666"
     borderopacity="1.0"
     inkscape:pageopacity="0.0"
     inkscape:pageshadow="2"
     inkscape:zoom="0.35"
     inkscape:cx="-124.28571"
     inkscape:cy="560"
     inkscape:document-units="mm"
     inkscape:current-layer="layer1"
     showgrid="false"
     inkscape:window-width="1920"
     inkscape:window-height="1001"
     inkscape:window-x="-9"
     inkscape:window-y="-9"
     inkscape:window-maximized="1" />
  <metadata
     id="metadata5">
    <rdf:RDF>
      <cc:Work
         rdf:about="">
        <dc:format>image/svg+xml</dc:format>
        <dc:type
           rdf:resource="http://purl.org/dc/dcmitype/StillImage" />
        <dc:title />
      </cc:Work>
    </rdf:RDF>
  </metadata>
  <g
     inkscape:label="Capa 1"
     inkscape:groupmode="layer"
     id="layer1">
    <flowRoot
       xml:space="preserve"
       id="flowRoot3721"
       style="fill:black;fill-opacity:1;stroke:none;font-family:sans-serif;font-style:normal;font-weight:normal;font-size:40px;line-height:1.25;letter-spacing:0px;word-spacing:0px"><flowRegion
         id="flowRegion3723"><rect
           id="rect3725"
           width="8.5714283"
           height="57.142857"
           x="205.71428"
           y="496.80539" /></flowRegion><flowPara
         id="flowPara3727" /></flowRoot>    <flowRoot
       xml:space="preserve"
       id="flowRoot3729"
       style="fill:black;fill-opacity:1;stroke:none;font-family:sans-serif;font-style:normal;font-weight:normal;font-size:40px;line-height:1.25;letter-spacing:0px;word-spacing:0px"><flowRegion
         id="flowRegion3731"><rect
           id="rect3733"
           width="2.8571429"
           height="62.857143"
           x="431.42856"
           y="491.09113" /></flowRegion><flowPara
         id="flowPara3735" /></flowRoot>    <g
       sodipodi:type="inkscape:box3d"
       id="g3739"
       inkscape:perspectiveID="#perspective3737"
       inkscape:corner0="1.2681646 : 0.02687397 : 0 : 1"
       inkscape:corner7="0.10550769 : 0.011023337 : 62.662784 : 1">
      <path
         sodipodi:type="inkscape:box3dside"
         id="path3741"
         style="fill:#353564;fill-rule:evenodd;stroke:none;stroke-linejoin:round"
         inkscape:box3dsidetype="6"
         d="m 46.292938,158.47548 v 6.98831 L 171.5304,161.62227 v -0.24411 z"
         points="46.292938,165.46379 171.5304,161.62227 171.5304,161.37816 46.292938,158.47548 " />
      <path
         sodipodi:type="inkscape:box3dside"
         id="path3749"
         style="fill:#afafde;fill-rule:evenodd;stroke:none;stroke-linejoin:round"
         inkscape:box3dsidetype="13"
         d="m 46.292938,165.46379 48.686051,17.84073 79.678851,-21.443 -3.12744,-0.23925 z"
         points="94.978989,183.30452 174.65784,161.86152 171.5304,161.62227 46.292938,165.46379 " />
      <path
         sodipodi:type="inkscape:box3dside"
         id="path3751"
         style="fill:#e9e9ff;fill-rule:evenodd;stroke:none;stroke-linejoin:round"
         inkscape:box3dsidetype="11"
         d="m 171.5304,161.37816 3.12744,0.2348 v 0.24856 l -3.12744,-0.23925 z"
         points="174.65784,161.61296 174.65784,161.86152 171.5304,161.62227 171.5304,161.37816 " />
      <path
         sodipodi:type="inkscape:box3dside"
         id="path3743"
         style="fill:#4d4d9f;fill-rule:evenodd;stroke:none;stroke-linejoin:round"
         inkscape:box3dsidetype="5"
         d="m 46.292938,158.47548 48.686051,10.49117 79.678851,-7.35369 -3.12744,-0.2348 z"
         points="94.978989,168.96665 174.65784,161.61296 171.5304,161.37816 46.292938,158.47548 " />
      <path
         sodipodi:type="inkscape:box3dside"
         id="path3747"
         style="fill:#d7d7ff;fill-rule:evenodd;stroke:none;stroke-linejoin:round"
         inkscape:box3dsidetype="14"
         d="m 94.978989,168.96665 v 14.33787 l 79.678851,-21.443 v -0.24856 z"
         points="94.978989,183.30452 174.65784,161.86152 174.65784,161.61296 94.978989,168.96665 " />
      <path
         sodipodi:type="inkscape:box3dside"
         id="path3745"
         style="fill:#8686bf;fill-rule:evenodd;stroke:none;stroke-linejoin:round"
         inkscape:box3dsidetype="3"
         d="m 46.292938,158.47548 48.686051,10.49117 v 14.33787 L 46.292938,165.46379 Z"
         points="94.978989,168.96665 94.978989,183.30452 46.292938,165.46379 46.292938,158.47548 " />
    </g>
    <path
       id="path87"
       d="m 70.764807,112.9928 c -0.08924,2.86847 -0.06177,5.73984 -0.0532,8.60946 0.02656,2.37312 0.02289,4.74617 0.01714,7.11938 0.0032,1.99495 0.01812,3.98985 0.02635,5.98478 -0.01151,1.9209 -0.0136,3.84179 -0.0067,5.76278 0.0071,1.64267 0.0108,3.28535 0.01273,4.92803 0.0013,1.51371 0.0013,3.02743 0.0013,4.54114 -0.0024,1.57263 0.009,3.14526 -0.01378,4.71775 -0.0019,0.33601 -0.0035,0.67201 -0.0052,1.00802 0,0 -9.951228,5.0704 -9.951228,5.0704 v 0 c -0.0019,-0.33423 -0.0035,-0.66847 -0.0052,-1.0027 -0.0231,-1.5678 -0.01116,-3.13575 -0.01381,-4.70369 10e-6,-1.51417 -5.9e-5,-3.02833 0.0013,-4.5425 0.0019,-1.64701 0.0056,-3.29401 0.01273,-4.941 0.0069,-1.91873 0.0049,-3.83734 -0.0067,-5.75597 0.0082,-2.00388 0.02318,-4.00774 0.02635,-6.01164 -0.0058,-2.37903 -0.0093,-4.75791 0.01714,-7.13685 0.0085,-2.85153 0.03677,-5.7049 -0.0532,-8.55524 0,0 9.9939,-5.09215 9.9939,-5.09215 z"
       inkscape:connector-curvature="0"
       style="stroke-width:0.26458332" />
    <path
       id="path89"
       d="m 61.108502,148.96896 c 4.801169,-3.61714 9.819502,-7.11008 15.41962,-9.37573 2.198912,-0.70138 4.511659,-0.81145 6.801152,-0.86282 1.842135,-0.14155 3.583035,-0.68146 5.375497,-1.06839 1.108659,-0.11775 2.169144,-0.39752 3.247101,-0.66536 0,0 -8.90443,6.79543 -8.90443,6.79543 v 0 c -1.076862,0.24923 -2.167289,0.41536 -3.247176,0.65012 -1.800002,0.4343 -3.611993,0.81192 -5.47112,0.87681 -2.220899,0.11062 -4.466539,0.28169 -6.526009,1.20016 -3.694422,1.87431 -3.442983,1.77283 7.405889,-4.41778 0.347575,-0.19833 -0.669144,0.44079 -0.983938,0.68788 -2.542053,1.9953 0.717809,-0.31319 -1.888693,1.39575 -0.281657,0.18467 -0.549392,0.38975 -0.824085,0.58462 0,0 -10.403808,4.19931 -10.403808,4.19931 z"
       inkscape:connector-curvature="0"
       style="stroke-width:0.26458332" />
    <path
       id="path91"
       d="m 97.979091,101.65352 c -0.07115,2.56503 -0.05062,5.13167 -0.03999,7.69739 -0.0065,2.16225 0.02561,4.32438 0.02053,6.48661 0.02669,2.06336 0.02757,4.11939 -0.191313,6.17264 -0.256569,1.85423 -0.422613,3.71615 -0.501438,5.58586 -0.05024,1.83381 -0.06773,3.66865 -0.0722,5.50312 -0.0034,2.14637 -0.0065,4.2926 0.0047,6.43896 0.02236,1.87906 0.01162,3.75782 -0.0062,5.6368 -0.01013,2.06468 0.01783,4.12928 0.01146,6.19394 -0.0089,2.25712 -0.02328,4.51391 -0.01217,6.77108 0,0 -9.932604,5.06092 -9.932604,5.06092 v 0 c 0.01106,-2.25306 -0.0031,-4.50572 -0.01212,-6.75872 -0.0064,-2.06853 0.0217,-4.137 0.01146,-6.20555 -0.01812,-1.87627 -0.02879,-3.75232 -0.0085,-5.62869 0.0089,-2.1469 0.0021,-4.29365 -0.0038,-6.44053 -0.0033,-1.84461 -0.03066,-3.68966 0.03631,-5.53363 0.06901,-1.89927 0.175908,-3.79652 0.482177,-5.67522 0.265435,-2.01347 0.280601,-4.01848 0.239178,-6.04866 -0.0051,-2.1692 0.02707,-4.3383 0.02053,-6.50753 0.01053,-2.55213 0.03174,-5.10523 -0.03999,-7.65665 0,0 9.9939,-5.09214 9.9939,-5.09214 z"
       inkscape:connector-curvature="0"
       style="stroke-width:0.26458332" />
    <path
       id="path93"
       d="m 113.09814,104.67733 c -0.0953,2.99074 -0.0744,5.98441 -0.0525,8.97628 0.005,2.21584 0.0269,4.43158 0.0396,6.64737 0.0121,1.74861 0.009,3.49725 -0.0128,5.24575 -0.0206,2.29931 -0.007,4.59882 -0.001,6.89819 0.008,1.9721 0.0131,3.94427 0.006,5.91638 0.003,1.95019 0.0149,3.90012 -0.009,5.8502 -0.0168,2.27494 -0.003,4.54985 0.0104,6.82475 -0.10907,1.49131 0.0959,2.94838 0.31424,4.41631 0,0 -9.89757,5.23256 -9.89757,5.23256 v 0 c -0.23613,-1.52122 -0.48924,-3.02879 -0.37042,-4.57718 0.0134,-2.27844 0.0272,-4.55689 0.0104,-6.83536 -0.0245,-1.94692 -0.0122,-3.89369 -0.009,-5.84071 -0.008,-1.97402 -0.002,-3.9481 0.006,-5.92211 0.006,-2.29898 0.0194,-4.5981 -0.001,-6.89701 -0.0223,-1.74415 -0.0247,-3.48845 -0.0128,-5.23271 0.0127,-2.22926 0.0349,-4.45846 0.0396,-6.68777 0.0216,-2.97401 0.0439,-5.94994 -0.0525,-8.9228 0,0 9.9939,-5.09214 9.9939,-5.09214 z"
       inkscape:connector-curvature="0"
       style="stroke-width:0.26458332" />
    <path
       id="path95"
       d="m 117.14149,102.44763 c 2.51961,0.0382 5.0399,0.0358 7.55978,0.0282 2.18422,-0.0152 4.36848,-0.009 6.55272,-0.0114 2.17367,-5.3e-4 4.34742,-0.008 6.52101,0.0117 3.13879,0.0206 6.27759,0.0183 9.41641,0.0128 1.47744,0.16901 4.63055,-0.75022 5.38173,1.17015 0.10472,0.26771 0.0838,0.56879 0.12562,0.85318 -0.24745,1.31976 -1.33452,1.97576 -2.31456,2.73923 -0.70723,0.55094 -1.77354,1.43671 -2.43876,1.98374 -2.56432,1.94691 -4.97555,4.08186 -7.38605,6.21297 -1.72056,1.52053 -3.67227,2.78323 -5.23245,4.47413 -1.44376,1.89295 -2.59859,3.97656 -3.9979,5.90267 -1.5523,1.9796 -3.18287,3.89476 -4.70193,5.90042 -1.56842,1.91522 -3.39698,3.58594 -4.97167,5.49754 -0.44579,0.62602 -1.03279,1.28158 -1.12445,2.08593 -0.0151,0.13214 0.22535,-0.15264 0.35508,-0.18196 0.17592,-0.0398 0.35865,-0.0387 0.53798,-0.058 2.61301,-0.33903 4.19629,0.0222 6.66218,0.79455 1.82789,0.75531 3.59678,1.52036 5.2763,2.56773 1.82232,1.376 3.35787,3.04868 4.6995,4.88554 1.93412,2.44028 3.53102,5.10307 5.23458,7.69956 1.9797,2.40396 3.4627,5.16982 4.95477,7.89091 0.8478,1.51101 0.42702,0.7548 1.26235,2.26863 0,0 -9.64078,5.54023 -9.64078,5.54023 v 0 c -0.83473,-1.51826 -0.41824,-0.75523 -1.24935,-2.28915 -1.43268,-2.72036 -2.93964,-5.43098 -4.88485,-7.82425 -1.67422,-2.59339 -3.27032,-5.23122 -5.26821,-7.60102 -1.28358,-1.7041 -2.69961,-3.31321 -4.49354,-4.50153 -1.62094,-0.94631 -3.33911,-1.67541 -5.08676,-2.35678 -0.78315,-0.22467 -1.46457,-0.45192 -2.27633,-0.55867 -1.43897,-0.18924 -2.88389,0.12646 -4.32591,0.0201 -2.47889,-0.52389 -2.06868,-2.27755 -0.8838,-3.98837 1.48273,-1.99548 3.28993,-3.68538 4.99314,-5.48722 1.51358,-2.00551 3.09262,-3.95689 4.69263,-5.89424 1.47171,-1.88422 2.68494,-3.92305 3.98231,-5.92567 1.34007,-1.95727 3.38755,-3.18704 5.19674,-4.68262 2.46124,-2.10321 4.81548,-4.34161 7.42864,-6.26 1.04301,-0.86613 2.04405,-1.86346 3.15916,-2.6393 0.34118,-0.23737 1.08037,-0.59525 1.41376,-0.8901 0.1252,-0.11074 0.2013,-0.26691 0.30195,-0.40036 0.0993,-0.0207 0.22014,0.003 0.2978,-0.0621 0.18749,-0.15741 -0.4282,-0.26417 -0.67038,-0.29989 -1.31123,-0.19344 -2.65331,0.002 -3.96925,-0.0756 -3.15056,-0.006 -6.30108,-0.008 -9.4516,0.0128 -2.18431,0.0189 -4.36877,0.0124 -6.55316,0.0117 -2.17375,-0.002 -4.34753,0.004 -6.52126,-0.0114 -2.54578,-0.008 -5.09194,-0.009 -7.63747,0.0282 0,0 9.07428,-6.59284 9.07428,-6.59284 z"
       inkscape:connector-curvature="0"
       style="stroke-width:0.26458332" />
  </g>
</svg>
